<?xml version="1.0" encoding="UTF-8"?>
<svg id="_레이어_1" data-name="레이어 1" xmlns="http://www.w3.org/2000/svg" viewBox="0 0 48 48">
  <defs>
    <style>
      .cls-81 {
        fill: #fff;
      }

      .cls-82 {
        fill: none;
        stroke: #fff;
        stroke-linecap: round;
        stroke-linejoin: round;
        stroke-width: 2.338px;
      }
    </style>
  </defs>
  <path class="cls-82" d="m4.733,35.515c3.877,6.413,10.916,10.701,18.957,10.701,12.225,0,22.136-9.91,22.136-22.136S35.916,1.944,23.691,1.944C15.65,1.944,8.61,6.231,4.733,12.644l-.657-7.433"/>
  <g>
    <path class="cls-81" d="m11.895,25.422h-6.289v-1.803h6.289v1.803Z"/>
    <path class="cls-81" d="m19.793,31.613h-2.175v-12.029h-.078l-3.39,2.214v-2.058l3.527-2.312h2.116v14.185Z"/>
    <path class="cls-81" d="m23.419,27.91h2.097c.117,1.205,1.273,2.087,2.703,2.097,1.725-.01,2.959-1.254,2.959-2.938,0-1.725-1.273-2.979-3.057-2.998-1.137,0-2.008.382-2.488,1.254h-2.037l.921-7.896h8.032v1.842h-6.25l-.47,3.977h.137c.588-.567,1.587-.95,2.665-.96,2.674.01,4.643,1.989,4.643,4.722,0,2.792-2.096,4.801-5.055,4.801-2.684,0-4.702-1.637-4.8-3.899Z"/>
  </g>
</svg>