<?xml version="1.0" encoding="UTF-8"?>
<svg id="_레이어_1" data-name="레이어 1" xmlns="http://www.w3.org/2000/svg" viewBox="0 0 48 48">
  <defs>
    <style>
      .cls-72 {
        fill: #fff;
      }

      .cls-73 {
        fill: none;
        stroke: #fff;
        stroke-linecap: round;
        stroke-linejoin: round;
        stroke-width: 2.338px;
      }
    </style>
  </defs>
  <path class="cls-73" d="m45.09,35.515c-3.877,6.413-10.916,10.701-18.957,10.701-12.225,0-22.136-9.91-22.136-22.136,0-12.225,9.91-22.136,22.136-22.136,8.041,0,15.08,4.287,18.957,10.7l.657-7.433"/>
  <g>
    <path class="cls-72" d="m21.487,31.613h-2.175v-12.029h-.078l-3.39,2.214v-2.058l3.526-2.312h2.116v14.185Z"/>
    <path class="cls-72" d="m25.113,27.91h2.097c.117,1.205,1.273,2.087,2.703,2.097,1.725-.01,2.959-1.254,2.959-2.938,0-1.725-1.273-2.979-3.057-2.998-1.137,0-2.008.382-2.488,1.254h-2.037l.921-7.896h8.032v1.842h-6.25l-.47,3.977h.137c.588-.567,1.587-.95,2.665-.96,2.674.01,4.644,1.989,4.644,4.722,0,2.792-2.097,4.801-5.056,4.801-2.684,0-4.702-1.637-4.8-3.899Z"/>
    <path class="cls-72" d="m41.436,25.48h-3.742v-1.881h3.742v-3.742h1.881v3.742h3.762v1.881h-3.762v3.742h-1.881v-3.742Z"/>
  </g>
</svg>