<?xml version="1.0" encoding="utf-8"?>
<!-- Generator: Adobe Illustrator 27.4.0, SVG Export Plug-In . SVG Version: 6.00 Build 0)  -->
<svg version="1.1" id="레이어_1" xmlns="http://www.w3.org/2000/svg" xmlns:xlink="http://www.w3.org/1999/xlink" x="0px"
	 y="0px" viewBox="0 0 24 24" style="enable-background:new 0 0 24 24;" xml:space="preserve">
<style type="text/css">
	.st0{fill:#262524;}
</style>
<path class="st0" d="M12,19c-0.3,0-0.5-0.1-0.7-0.3C11.1,18.5,11,18.3,11,18v-5H6c-0.3,0-0.5-0.1-0.7-0.3C5.1,12.5,5,12.3,5,12
	s0.1-0.5,0.3-0.7C5.5,11.1,5.7,11,6,11h5V6c0-0.3,0.1-0.5,0.3-0.7C11.5,5.1,11.7,5,12,5s0.5,0.1,0.7,0.3C12.9,5.5,13,5.7,13,6v5h5
	c0.3,0,0.5,0.1,0.7,0.3c0.2,0.2,0.3,0.4,0.3,0.7s-0.1,0.5-0.3,0.7C18.5,12.9,18.3,13,18,13h-5v5c0,0.3-0.1,0.5-0.3,0.7
	C12.5,18.9,12.3,19,12,19z"/>
</svg>
