<?xml version="1.0" encoding="UTF-8"?>
<svg id="_레이어_1" data-name="레이어 1" xmlns="http://www.w3.org/2000/svg" viewBox="0 0 20 20">
  <defs>
    <style>
      .cls-1 {
        fill: #fff;
      }

      .cls-2 {
        fill: #ffc37c;
      }

      .cls-3 {
        fill: #ff6b00;
      }
    </style>
  </defs>
  <rect class="cls-1" width="20" height="20"/>
  <g>
    <path class="cls-2" d="m4.42,17.329c.205.719.487,1.364,1.118,1.872.689.554,1.577.845,2.461.793,1.678-.1,3.105-1.405,3.313-3.039.05-.39.045-.789.118-1.174.146-.772.612-1.365,1.173-1.881.559-.514,1.138-1.004,1.717-1.496,2.167-1.842,3.048-4.183,2.665-6.986C16.577,2.433,13.928.072,10.898.002c-1.766-.041-3.457.544-4.719,1.8-1.504,1.496-1.978,3.548-2.25,5.591-.274,2.055-.362,4.141-.175,6.208.094,1.041.258,2.076.503,3.092.052.217.105.429.163.636Z"/>
    <path class="cls-3" d="m8.496,6.675c-.114.421.086.588.468.751,1.211.518,1.865,1.81,1.629,3.09-.234,1.268-1.299,2.223-2.596,2.329-.433.035-.72-.104-.856-.416-.21-.483.116-.976.661-.998.681-.028,1.223-.461,1.376-1.098.205-.855-.426-1.709-1.308-1.768-.561-.038-.804-.288-.791-.856.015-.676-.025-1.364.091-2.023.287-1.624,1.762-2.812,3.411-2.832,1.686-.021,3.168,1.126,3.534,2.75.057.252.087.514.095.773.013.436-.299.758-.706.757-.398,0-.696-.308-.711-.734-.039-1.076-.745-1.903-1.787-2.093-1.275-.232-2.485.76-2.51,2.057-.002.104,0,.208,0,.313Z"/>
  </g>
</svg>