<?xml version="1.0" encoding="UTF-8"?>
<svg id="_레이어_1" data-name="레이어 1" xmlns="http://www.w3.org/2000/svg" viewBox="0 0 24 24">
  <defs>
    <style>
      .cls-41 {
        fill: #f90;
      }
    </style>
  </defs>
  <path class="cls-41" d="m9,21c-1.667,0-3.083-.583-4.25-1.75s-1.75-2.583-1.75-4.25v-6c0-1.667.583-3.083,1.75-4.25,1.167-1.167,2.583-1.75,4.25-1.75h6c1.667,0,3.083.583,4.25,1.75,1.167,1.167,1.75,2.583,1.75,4.25v6c0,1.667-.583,3.083-1.75,4.25s-2.583,1.75-4.25,1.75h-6Zm2-5l6-6-1.4-1.4-4.6,4.6-2.2-2.2-1.4,1.4,3.6,3.6Z"/>
</svg>