<?xml version="1.0" encoding="utf-8"?>
<!-- Generator: Adobe Illustrator 27.4.0, SVG Export Plug-In . SVG Version: 6.00 Build 0)  -->
<svg version="1.1" id="레이어_1" xmlns="http://www.w3.org/2000/svg" xmlns:xlink="http://www.w3.org/1999/xlink" x="0px"
	 y="0px" viewBox="0 0 24 24" style="enable-background:new 0 0 24 24;" xml:space="preserve">
<style type="text/css">
	.st0{fill:#262524;}
	.st1{fill:#262524;stroke:#000000;stroke-width:1.6629;stroke-linecap:round;stroke-linejoin:round;stroke-miterlimit:10;}
	.st2{fill:none;stroke:#262524;stroke-width:1.6502;stroke-linecap:round;stroke-linejoin:round;stroke-miterlimit:10;}
</style>
<path class="st0" d="M27.1,16.5l2.2-1l6.4-6.3L34.6,8l-6.4,6.3L27.1,16.5z M39.5,8l-3.7-3.6L37,3.2c0.3-0.3,0.7-0.5,1.2-0.5
	c0.5,0,0.9,0.2,1.2,0.5l1.2,1.2c0.3,0.3,0.5,0.7,0.5,1.2c0,0.5-0.1,0.9-0.5,1.2L39.5,8z M26.3,18.2c-0.2,0-0.4-0.1-0.6-0.2
	c-0.2-0.2-0.2-0.4-0.2-0.6l1-3.4c0-0.1,0-0.2,0.1-0.3c0-0.1,0.1-0.2,0.2-0.3l7.9-7.8l3.7,3.6L30.3,17c-0.1,0.1-0.2,0.1-0.3,0.2
	c-0.1,0-0.2,0.1-0.3,0.1L26.3,18.2z M35.2,8.6L34.6,8l1.2,1.2L35.2,8.6z"/>
<g>
	<line class="st1" x1="4.4" y1="20.3" x2="19.6" y2="20.3"/>
	<polygon class="st2" points="9.2,16 5.5,16.6 6.2,13 15.5,3.7 18.5,6.7 	"/>
</g>
</svg>
