<?xml version="1.0" encoding="UTF-8"?>
<svg id="_레이어_1" data-name="레이어 1" xmlns="http://www.w3.org/2000/svg" viewBox="0 0 20 20">
  <defs>
    <style>
      .cls-1 {
        fill: #fff;
      }

      .cls-2 {
        fill: #ffc37c;
      }

      .cls-3 {
        fill: #ff6b00;
      }
    </style>
  </defs>
  <rect class="cls-1" width="20" height="20"/>
  <g>
    <path class="cls-2" d="m19.715,9.809L10.538,1.784c-.308-.27-.769-.27-1.077,0L.285,9.809c-.569.497-.217,1.433.538,1.433h2.455v7.176h13.435v-7.176h2.464c.755,0,1.107-.936.538-1.433Z"/>
    <path class="cls-3" d="m12.581,14.368v3.49c0,.198-.023.385-.07.56h-5.019c-.047-.175-.07-.362-.07-.56v-3.49c0-1.424,1.156-2.568,2.58-2.568.712,0,1.354.28,1.821.747s.759,1.109.759,1.821Z"/>
  </g>
</svg>