<?xml version="1.0" encoding="utf-8"?>
<!-- Generator: Adobe Illustrator 27.4.0, SVG Export Plug-In . SVG Version: 6.00 Build 0)  -->
<svg version="1.1" id="레이어_1" xmlns="http://www.w3.org/2000/svg" xmlns:xlink="http://www.w3.org/1999/xlink" x="0px"
	 y="0px" viewBox="0 0 24 24" style="enable-background:new 0 0 24 24;" xml:space="preserve">
<style type="text/css">
	.st0{fill:#262524;}
</style>
<path class="st0" d="M5,22c-0.8,0-1.5-0.3-2.1-0.9S2,19.8,2,19V5c0-0.8,0.3-1.5,0.9-2.1S4.2,2,5,2h14c0.8,0,1.5,0.3,2.1,0.9
	S22,4.2,22,5v14c0,0.8-0.3,1.5-0.9,2.1S19.8,22,19,22H5z M5,20h14c0.3,0,0.5-0.1,0.7-0.3c0.2-0.2,0.3-0.4,0.3-0.7V5
	c0-0.3-0.1-0.5-0.3-0.7C19.5,4.1,19.3,4,19,4H5C4.7,4,4.5,4.1,4.3,4.3C4.1,4.5,4,4.7,4,5v14c0,0.3,0.1,0.5,0.3,0.7
	C4.5,19.9,4.7,20,5,20z M6,18l4-4l1.8,1.8L14,13l4,5H6z M8,10c-0.5,0-1-0.2-1.4-0.6C6.2,9,6,8.6,6,8s0.2-1,0.6-1.4C7,6.2,7.5,6,8,6
	s1,0.2,1.4,0.6C9.8,7,10,7.5,10,8S9.8,9,9.4,9.4C9,9.8,8.6,10,8,10z"/>
</svg>
