<svg width="21" height="21" viewBox="0 0 21 21" fill="none" xmlns="http://www.w3.org/2000/svg">
<path d="M6.80729 15.9316H3.47396C3.23785 15.9316 3.03993 15.8518 2.88021 15.6921C2.72049 15.5323 2.64062 15.3344 2.64062 15.0983C2.64062 14.8622 2.72049 14.6643 2.88021 14.5046C3.03993 14.3448 3.23785 14.265 3.47396 14.265H6.80729C7.0434 14.265 7.24132 14.3448 7.40104 14.5046C7.56076 14.6643 7.64062 14.8622 7.64062 15.0983C7.64062 15.3344 7.56076 15.5323 7.40104 15.6921C7.24132 15.8518 7.0434 15.9316 6.80729 15.9316ZM16.8073 7.59831H3.47396C3.23785 7.59831 3.03993 7.51845 2.88021 7.35872C2.72049 7.199 2.64062 7.00109 2.64062 6.76497C2.64062 6.52886 2.72049 6.33095 2.88021 6.17122C3.03993 6.0115 3.23785 5.93164 3.47396 5.93164H16.8073C17.0434 5.93164 17.2413 6.0115 17.401 6.17122C17.5608 6.33095 17.6406 6.52886 17.6406 6.76497C17.6406 7.00109 17.5608 7.199 17.401 7.35872C17.2413 7.51845 17.0434 7.59831 16.8073 7.59831ZM11.8073 11.765H3.47396C3.23785 11.765 3.03993 11.6851 2.88021 11.5254C2.72049 11.3657 2.64062 11.1678 2.64062 10.9316C2.64062 10.6955 2.72049 10.4976 2.88021 10.3379C3.03993 10.1782 3.23785 10.0983 3.47396 10.0983H11.8073C12.0434 10.0983 12.2413 10.1782 12.401 10.3379C12.5608 10.4976 12.6406 10.6955 12.6406 10.9316C12.6406 11.1678 12.5608 11.3657 12.401 11.5254C12.2413 11.6851 12.0434 11.765 11.8073 11.765Z" fill="white"/>
</svg>
