<svg width="82" height="30" viewBox="0 0 82 30" fill="none" xmlns="http://www.w3.org/2000/svg">
<rect x="0.140625" y="0.931641" width="81" height="29" rx="4" fill="#FF9900"/>
<path d="M16.8073 19.9316H13.474C13.2378 19.9316 13.0399 19.8518 12.8802 19.6921C12.7205 19.5323 12.6406 19.3344 12.6406 19.0983C12.6406 18.8622 12.7205 18.6643 12.8802 18.5046C13.0399 18.3448 13.2378 18.265 13.474 18.265H16.8073C17.0434 18.265 17.2413 18.3448 17.401 18.5046C17.5608 18.6643 17.6406 18.8622 17.6406 19.0983C17.6406 19.3344 17.5608 19.5323 17.401 19.6921C17.2413 19.8518 17.0434 19.9316 16.8073 19.9316ZM26.8073 11.5983H13.474C13.2378 11.5983 13.0399 11.5184 12.8802 11.3587C12.7205 11.199 12.6406 11.0011 12.6406 10.765C12.6406 10.5289 12.7205 10.3309 12.8802 10.1712C13.0399 10.0115 13.2378 9.93164 13.474 9.93164H26.8073C27.0434 9.93164 27.2413 10.0115 27.401 10.1712C27.5608 10.3309 27.6406 10.5289 27.6406 10.765C27.6406 11.0011 27.5608 11.199 27.401 11.3587C27.2413 11.5184 27.0434 11.5983 26.8073 11.5983ZM21.8073 15.765H13.474C13.2378 15.765 13.0399 15.6851 12.8802 15.5254C12.7205 15.3657 12.6406 15.1678 12.6406 14.9316C12.6406 14.6955 12.7205 14.4976 12.8802 14.3379C13.0399 14.1782 13.2378 14.0983 13.474 14.0983H21.8073C22.0434 14.0983 22.2413 14.1782 22.401 14.3379C22.5608 14.4976 22.6406 14.6955 22.6406 14.9316C22.6406 15.1678 22.5608 15.3657 22.401 15.5254C22.2413 15.6851 22.0434 15.765 21.8073 15.765Z" fill="white"/>
<path d="M39.4865 15.3516H38.1877V17.5254C36.9641 17.5664 35.7951 17.5732 34.8107 17.5801L34.9748 18.6465C37.1623 18.6465 40.1359 18.626 42.9045 18.1133L42.8088 17.1562C41.7424 17.3135 40.6076 17.4092 39.4865 17.4707V15.3516ZM35.1389 14.7637L35.7541 15.748C37.2238 15.3311 38.3039 14.3945 38.8371 13.1709C39.3908 14.333 40.4846 15.2217 41.9475 15.6387L42.549 14.627C40.717 14.1348 39.5549 12.8975 39.4865 11.4551H42.2346V10.4023H39.4865V8.93945H38.1877V10.4023H35.467V11.4551H38.174C38.1057 12.959 36.9641 14.2373 35.1389 14.7637ZM43.5744 21.1211H44.8732V8.84375H43.5744V21.1211ZM57.2002 8.85742H55.9014V17.8262H57.2002V8.85742ZM47.1104 15.0645L47.8076 16.0898C49.2432 15.5361 50.3027 14.4014 50.8428 12.9795C51.3896 14.3057 52.4355 15.3447 53.8506 15.8711L54.5205 14.832C52.627 14.1758 51.4922 12.5352 51.499 10.7441V9.52734H50.1729V10.7441C50.166 12.5898 49.0312 14.3535 47.1104 15.0645ZM49.1885 20.834H57.5693V19.7812H50.501V16.9785H49.1885V20.834ZM65.5896 9.69141V9.1582H64.2635V9.69141C64.2566 11.2705 62.3084 12.7129 59.9842 13.0684L60.4764 14.0938C62.4314 13.7725 64.1541 12.7607 64.9334 11.3662C65.7195 12.7402 67.4285 13.7451 69.3768 14.0664L69.8826 13.041C67.5584 12.7061 65.5965 11.2227 65.5896 9.69141ZM59.3279 16.0625H64.3865V18.4277H65.6717V16.0625H70.5389V15.0098H59.3279V16.0625ZM60.7225 20.834H69.2947V19.7812H62.0213V17.2793H60.7225V20.834Z" fill="white"/>
</svg>
