<svg width="93" height="30" viewBox="0 0 93 30" fill="none" xmlns="http://www.w3.org/2000/svg">
<rect y="0.931641" width="93" height="29" rx="4" fill="#FF9900"/>
<path d="M16.6667 19.9316H13.3333C13.0972 19.9316 12.8993 19.8518 12.7396 19.6921C12.5799 19.5323 12.5 19.3344 12.5 19.0983C12.5 18.8622 12.5799 18.6643 12.7396 18.5046C12.8993 18.3448 13.0972 18.265 13.3333 18.265H16.6667C16.9028 18.265 17.1007 18.3448 17.2604 18.5046C17.4201 18.6643 17.5 18.8622 17.5 19.0983C17.5 19.3344 17.4201 19.5323 17.2604 19.6921C17.1007 19.8518 16.9028 19.9316 16.6667 19.9316ZM26.6667 11.5983H13.3333C13.0972 11.5983 12.8993 11.5184 12.7396 11.3587C12.5799 11.199 12.5 11.0011 12.5 10.765C12.5 10.5289 12.5799 10.3309 12.7396 10.1712C12.8993 10.0115 13.0972 9.93164 13.3333 9.93164H26.6667C26.9028 9.93164 27.1007 10.0115 27.2604 10.1712C27.4201 10.3309 27.5 10.5289 27.5 10.765C27.5 11.0011 27.4201 11.199 27.2604 11.3587C27.1007 11.5184 26.9028 11.5983 26.6667 11.5983ZM21.6667 15.765H13.3333C13.0972 15.765 12.8993 15.6851 12.7396 15.5254C12.5799 15.3657 12.5 15.1678 12.5 14.9316C12.5 14.6955 12.5799 14.4976 12.7396 14.3379C12.8993 14.1782 13.0972 14.0983 13.3333 14.0983H21.6667C21.9028 14.0983 22.1007 14.1782 22.2604 14.3379C22.4201 14.4976 22.5 14.6955 22.5 14.9316C22.5 15.1678 22.4201 15.3657 22.2604 15.5254C22.1007 15.6851 21.9028 15.765 21.6667 15.765Z" fill="white"/>
<path d="M40.6727 12.4941H39.3875V13.834H34.4383V14.8867H45.6492V13.834H40.6727V12.4941ZM35.0125 12.248L35.4363 13.2188C37.5965 13.0342 39.3875 12.2412 40.0438 11.0244C40.6863 12.248 42.4773 13.0342 44.6375 13.2188L45.0613 12.248C42.8465 12.0977 41.1238 11.2568 40.9119 10.1973H44.6238V9.19922H35.4773V10.1973H39.1482C38.9363 11.25 37.1932 12.0977 35.0125 12.248ZM35.4773 17.3887H44.5828V16.3906H40.6727V15.3105H39.3875V16.3906H35.4773V17.3887ZM36.3113 19.5215C36.3045 20.5947 37.6375 21.1553 40.0164 21.1484C42.3953 21.1553 43.7557 20.5947 43.7625 19.5215C43.7557 18.4619 42.3953 17.915 40.0164 17.9082C37.6375 17.915 36.3045 18.4619 36.3113 19.5215ZM37.6375 19.5215C37.6238 19.0293 38.4852 18.8037 40.0164 18.7969C41.575 18.8037 42.4158 19.0293 42.4227 19.5215C42.4158 20.0137 41.575 20.2734 40.0164 20.2598C38.4852 20.2734 37.6238 20.0137 37.6375 19.5215ZM50.0328 9.75977C48.2008 9.7666 46.8951 11.4346 46.902 14.0527C46.8951 16.6982 48.2008 18.3662 50.0328 18.3594C51.8648 18.3662 53.1705 16.6982 53.1773 14.0527C53.1705 11.4346 51.8648 9.7666 50.0328 9.75977ZM48.1461 14.0527C48.1393 12.1318 48.9186 10.9287 50.0328 10.9219C51.1676 10.9287 51.9332 12.1318 51.9332 14.0527C51.9332 16.001 51.1676 17.1973 50.0328 17.1973C48.9186 17.1973 48.1393 16.001 48.1461 14.0527ZM54.9957 21.0938H56.2945V14.7363H58.2633V13.6426H56.2945V8.84375H54.9957V21.0938ZM70.2621 18.4824H67.5824V15.2559C68.5668 14.7021 69.1547 13.834 69.1547 12.7539C69.1547 10.8262 67.2611 9.56152 64.6293 9.55469C62.0043 9.56152 60.1107 10.8262 60.1176 12.7539C60.1107 13.8545 60.726 14.7295 61.7309 15.2832V18.4824H59.0512V19.5625H70.2621V18.4824ZM61.3754 12.7539C61.3754 11.4346 62.7084 10.5938 64.6293 10.5938C66.5365 10.5938 67.89 11.4346 67.8969 12.7539C67.89 14.0664 66.5365 14.9209 64.6293 14.9277C62.7084 14.9209 61.3754 14.0664 61.3754 12.7539ZM63.016 18.4824V15.7617C63.5082 15.8779 64.0551 15.9395 64.6293 15.9395C65.2172 15.9395 65.7709 15.8779 66.2699 15.7617V18.4824H63.016ZM77.5988 9.69141V9.1582H76.2727V9.69141C76.2658 11.2705 74.3176 12.7129 71.9934 13.0684L72.4855 14.0938C74.4406 13.7725 76.1633 12.7607 76.9426 11.3662C77.7287 12.7402 79.4377 13.7451 81.3859 14.0664L81.8918 13.041C79.5676 12.7061 77.6057 11.2227 77.5988 9.69141ZM71.3371 16.0625H76.3957V18.4277H77.6809V16.0625H82.548V15.0098H71.3371V16.0625ZM72.7316 20.834H81.3039V19.7812H74.0305V17.2793H72.7316V20.834Z" fill="white"/>
</svg>
