<?xml version="1.0" encoding="utf-8"?>
<!-- Generator: Adobe Illustrator 27.4.0, SVG Export Plug-In . SVG Version: 6.00 Build 0)  -->
<svg version="1.1" id="레이어_1" xmlns="http://www.w3.org/2000/svg" xmlns:xlink="http://www.w3.org/1999/xlink" x="0px"
	 y="0px" viewBox="0 0 24 24" style="enable-background:new 0 0 24 24;" xml:space="preserve">
<style type="text/css">
	.st0{fill:#262524;}
</style>
<path class="st0" d="M4,20c-0.3,0-0.5-0.1-0.7-0.3C3.1,19.5,3,19.3,3,19s0.1-0.5,0.3-0.7C3.5,18.1,3.7,18,4,18h16
	c0.3,0,0.5,0.1,0.7,0.3c0.2,0.2,0.3,0.4,0.3,0.7s-0.1,0.5-0.3,0.7C20.5,19.9,20.3,20,20,20H4z M4,13c-0.3,0-0.5-0.1-0.7-0.3
	S3,12.3,3,12s0.1-0.5,0.3-0.7S3.7,11,4,11h16c0.3,0,0.5,0.1,0.7,0.3S21,11.7,21,12s-0.1,0.5-0.3,0.7C20.5,12.9,20.3,13,20,13H4z
	 M4,6C3.7,6,3.5,5.9,3.3,5.7C3.1,5.5,3,5.3,3,5s0.1-0.5,0.3-0.7C3.5,4.1,3.7,4,4,4h16c0.3,0,0.5,0.1,0.7,0.3C20.9,4.5,21,4.7,21,5
	s-0.1,0.5-0.3,0.7C20.5,5.9,20.3,6,20,6H4z"/>
</svg>
