<?xml version="1.0" encoding="utf-8"?>
<!-- Generator: Adobe Illustrator 27.4.0, SVG Export Plug-In . SVG Version: 6.00 Build 0)  -->
<svg version="1.1" id="레이어_1" xmlns="http://www.w3.org/2000/svg" xmlns:xlink="http://www.w3.org/1999/xlink" x="0px"
	 y="0px" viewBox="0 0 24 24" style="enable-background:new 0 0 24 24;" xml:space="preserve">
<style type="text/css">
	.st0{fill:none;stroke:#262524;stroke-width:2;stroke-linecap:round;stroke-linejoin:round;stroke-miterlimit:10;}
	.st1{fill:#262524;}
	.st2{fill:#FF9900;}
</style>
<g>
	<path class="st0" d="M-15,12.5c-0.4,3-2.9,5.3-6,5.3c-3.1,0-5.6-2.3-6-5.3"/>
	<path class="st1" d="M-24.2,5.7v5.9c0,1.7,1.3,3,3,3h0c1.7,0,3-1.3,3-3V5.7c0-1.7-1.3-3-3-3h0C-22.8,2.7-24.2,4-24.2,5.7z"/>
	<line class="st0" x1="-21" y1="17.8" x2="-21" y2="21.3"/>
</g>
<g>
	<path class="st0" d="M18,12.5c-0.4,3-2.9,5.3-6,5.3c-3.1,0-5.6-2.3-6-5.3"/>
	<path class="st1" d="M8.9,5.7v5.9c0,1.7,1.3,3,3,3h0c1.7,0,3-1.3,3-3V5.7c0-1.7-1.3-3-3-3h0C10.2,2.7,8.9,4,8.9,5.7z"/>
	<line class="st0" x1="12" y1="17.8" x2="12" y2="21.3"/>
</g>
<path class="st2" d="M21.5,20.5c0,0.3-0.1,0.5-0.3,0.7c-0.2,0.2-0.4,0.3-0.7,0.3c-0.3,0-0.5-0.1-0.7-0.3l-17-17
	C2.6,4,2.5,3.8,2.5,3.5S2.6,3,2.8,2.8s0.4-0.3,0.7-0.3S4,2.6,4.2,2.8l17,17C21.4,20,21.5,20.2,21.5,20.5z"/>
</svg>
