<?xml version="1.0" encoding="UTF-8"?>
<svg id="_레이어_1" data-name="레이어 1" xmlns="http://www.w3.org/2000/svg" viewBox="0 0 24 24">
  <defs>
    <style>
      .cls-51 {
        fill: #f90;
        opacity: .3;
      }
    </style>
  </defs>
  <path class="cls-51" d="m9,21c-1.667,0-3.083-.583-4.25-1.75s-1.75-2.583-1.75-4.25v-6c0-1.667.583-3.083,1.75-4.25,1.167-1.167,2.583-1.75,4.25-1.75h6c1.667,0,3.083.583,4.25,1.75,1.167,1.167,1.75,2.583,1.75,4.25v6c0,1.667-.583,3.083-1.75,4.25s-2.583,1.75-4.25,1.75h-6Zm0-2h6c1.1,0,2.042-.392,2.825-1.175s1.175-1.725,1.175-2.825v-6c0-1.1-.392-2.042-1.175-2.825s-1.725-1.175-2.825-1.175h-6c-1.1,0-2.042.392-2.825,1.175-.783.783-1.175,1.725-1.175,2.825v6c0,1.1.392,2.042,1.175,2.825.783.783,1.725,1.175,2.825,1.175Z"/>
</svg>