<?xml version="1.0" encoding="utf-8"?>
<!-- Generator: Adobe Illustrator 27.4.0, SVG Export Plug-In . SVG Version: 6.00 Build 0)  -->
<svg version="1.1" id="레이어_1" xmlns="http://www.w3.org/2000/svg" xmlns:xlink="http://www.w3.org/1999/xlink" x="0px"
	 y="0px" viewBox="0 0 24 24" style="enable-background:new 0 0 24 24;" xml:space="preserve">
<style type="text/css">
	.st0{fill:#262524;}
	.st1{fill:#FF9900;}
</style>
<path class="st6" d="M5,19c-0.3,0-0.5-0.1-0.7-0.3C4.1,18.5,4,18.3,4,18s0.1-0.5,0.3-0.7C4.5,17.1,4.7,17,5,17h1v-7
	c0-1.4,0.4-2.6,1.2-3.7s1.9-1.8,3.2-2.1V3.5c0-0.4,0.1-0.8,0.4-1.1C11.2,2.1,11.6,2,12,2s0.8,0.1,1.1,0.4s0.4,0.6,0.4,1.1v0.7
	c1.3,0.3,2.4,1,3.2,2.1C17.6,7.4,18,8.6,18,10v7h1c0.3,0,0.5,0.1,0.7,0.3c0.2,0.2,0.3,0.4,0.3,0.7s-0.1,0.5-0.3,0.7
	C19.5,18.9,19.3,19,19,19H5z M12,22c-0.6,0-1-0.2-1.4-0.6C10.2,21,10,20.6,10,20h4c0,0.6-0.2,1-0.6,1.4C13,21.8,12.6,22,12,22z
	 M8,17h8v-7c0-1.1-0.4-2-1.2-2.8S13.1,6,12,6s-2,0.4-2.8,1.2S8,8.9,8,10V17z"/>
<path class="st1" d="M-0.1-19.6c0,0.3-0.1,0.5-0.3,0.7s-0.4,0.3-0.7,0.3s-0.5-0.1-0.7-0.3l-17-17c-0.2-0.2-0.3-0.4-0.3-0.7
	s0.1-0.5,0.3-0.7c0.2-0.2,0.4-0.3,0.7-0.3c0.3,0,0.5,0.1,0.7,0.3l17,17C-0.2-20.2-0.1-19.9-0.1-19.6z"/>
<circle class="st1" cx="19.4" cy="3.9" r="2.5"/>
</svg>
