<?xml version="1.0" encoding="UTF-8"?>
<svg id="_레이어_1" data-name="레이어 1" xmlns="http://www.w3.org/2000/svg" viewBox="0 0 168.282 226.487">
  <defs>
    <style>
      .cls-1 {
        fill: #ffdacf;
      }

      .cls-2 {
        fill: #ff6b00;
      }

      .cls-3 {
        fill: #b67b7b;
      }

      .cls-4 {
        fill: #dedede;
      }
    </style>
  </defs>
  <path d="m44.58,50.895c-.056,0-.114-.01-.17-.029l-2.306-.817c-1.462-.519-2.23-2.131-1.712-3.593.251-.708.763-1.276,1.441-1.601.679-.323,1.442-.362,2.151-.112l2.307.817c.265.094.403.385.309.649-.094.264-.383.402-.649.31l-2.307-.817c-.453-.163-.94-.136-1.374.071-.433.207-.76.569-.921,1.022-.331.934.16,1.963,1.094,2.294l2.306.817c.265.094.403.385.309.649-.074.208-.27.339-.479.339Z"/>
  <path d="m47.174,43.577c-.056,0-.114-.01-.17-.029l-2.307-.817c-1.462-.52-2.23-2.131-1.712-3.594.519-1.462,2.13-2.227,3.593-1.712l2.307.817c.265.094.403.385.309.649-.094.263-.384.403-.649.31l-2.307-.817c-.934-.33-1.963.159-2.295,1.093-.331.935.16,1.964,1.094,2.295l2.307.817c.265.094.403.385.309.649-.074.208-.27.339-.479.339Z"/>
  <path d="m114.642,31.646c-.131,0-.262-.051-.361-.151-.197-.199-.196-.521.003-.719l1.739-1.722c.342-.338.531-.788.533-1.268.002-.48-.182-.933-.52-1.274-.697-.704-1.838-.711-2.542-.013l-1.738,1.722c-.199.197-.521.197-.719-.004-.197-.199-.196-.521.003-.719l1.739-1.722c1.104-1.091,2.89-1.082,3.98.021.529.534.818,1.242.814,1.994-.004.752-.3,1.457-.835,1.985l-1.738,1.722c-.099.098-.229.147-.358.147Z"/>
  <path d="m109.179,26.128c-.131,0-.262-.051-.361-.151-.197-.199-.196-.521.004-.719l1.739-1.722c.341-.338.53-.788.532-1.268.002-.48-.182-.933-.52-1.274-.698-.705-1.837-.71-2.542-.013l-1.739,1.722c-.199.197-.521.196-.719-.004-.197-.199-.196-.521.004-.719l1.739-1.722c1.103-1.091,2.888-1.081,3.979.021.529.534.818,1.242.814,1.994-.004.752-.3,1.457-.834,1.985l-1.739,1.722c-.099.098-.228.147-.357.147Z"/>
  <path d="m119.058,23.283c-.131,0-.262-.051-.361-.151-.197-.199-.196-.521.003-.719l1.739-1.722c.705-.697.71-1.838.013-2.543-.338-.341-.788-.529-1.268-.532h-.009c-.477,0-.925.185-1.264.521l-1.74,1.721c-.199.197-.521.197-.719-.004-.198-.199-.196-.521.004-.719l1.739-1.721c.53-.525,1.233-.814,1.979-.814h.014c.751.004,1.457.3,1.986.834,1.092,1.103,1.083,2.889-.02,3.98l-1.739,1.722c-.099.098-.229.147-.358.147Z"/>
  <path class="cls-4" d="m142.429,117.748c-13.523-23.919-40.546-24.977-40.546-24.977-4.298-1.746-7.17-7.947-7.17-7.947h-18.021s-3.628,4.63-9.758,5.789c-6.123,1.158-23.46-1.209-37.216,18.806-5.693,8.28-8.505,22.06-9.844,35.365l17.779,1.529v36.187l47.528-29.794,58.718,29.794-7.398-7.398,13.584-30.318s.321-.536-2.997-15.39c-.922-4.128-2.167-7.24-4.659-11.647Z"/>
  <path class="cls-1" d="m19.838,144.785c-1.864,18.841-1.124,40.022-1.124,40.022,0,0-.326,42.212,31.138,24.847,9.071-5.007,16.438-18.723,21.693-28.541,6.4-11.956,12.84-20.767,13.364-25.341.788-6.878-4.943-10.657-4.943-10.657,0,0,3.458-4.354,1.373-6.754-2.085-2.4-5.606-.141-5.606-.141,0,0-5.938,4.664-10.62,10.409-6.965,8.547-17.369,20.038-20.387,23.426-3.295,4.235.821-24.995.821-24.995l-25.709-2.274Z"/>
  <path class="cls-3" d="m34.611,183.151c-.142,0-.284-.046-.403-.141-.281-.224-.329-.632-.105-.913,1.812-2.286,9.828-10.172,10.168-10.507.256-.25.668-.246.919.008.252.257.249.668-.008.92-.083.081-8.298,8.163-10.061,10.386-.128.162-.318.247-.51.247Z"/>
  <path class="cls-1" d="m150.129,144.785c1.864,18.841,1.124,40.022,1.124,40.022,0,0,.326,42.212-31.138,24.847-9.071-5.007-16.438-18.723-21.693-28.541-6.4-11.956-12.84-20.767-13.364-25.341-.788-6.878,4.943-10.657,4.943-10.657,0,0-3.458-4.354-1.373-6.754,2.085-2.4,5.606-.141,5.606-.141,0,0,5.938,4.664,10.62,10.409,6.965,8.547,17.369,20.038,20.387,23.426,3.295,4.235-.821-24.995-.821-24.995l25.709-2.274Z"/>
  <g>
    <path class="cls-3" d="m77.93,147.081c-.168,0-.336-.065-.464-.195-.251-.256-.248-.667.008-.919,5.032-4.942,3.383-7.169,3.366-7.19-.218-.277-.181-.685.09-.909.271-.226.667-.199.899.065.107.123,2.554,3.07-3.444,8.962-.126.124-.291.187-.456.187Z"/>
    <path class="cls-3" d="m135.356,183.151c-.192,0-.381-.085-.51-.247-1.762-2.223-9.978-10.305-10.061-10.386-.256-.252-.26-.663-.008-.92.251-.254.664-.258.919-.008.34.335,8.356,8.221,10.168,10.507.223.281.176.689-.105.913-.12.095-.262.141-.403.141Z"/>
    <path class="cls-3" d="m92.038,147.081c-.165,0-.329-.062-.456-.187-5.998-5.892-3.551-8.839-3.444-8.962.237-.27.646-.3.917-.062.267.232.297.636.071.906-.048.064-1.616,2.296,3.367,7.189.256.252.26.663.008.919-.127.13-.295.195-.464.195Z"/>
    <path class="cls-3" d="m85.181,153.357c-.066,0-.133-.011-.199-.031-.342-.11-.53-.477-.42-.818,2.467-7.676,5.416-8.236,5.744-8.275.359-.043.68.212.722.569.042.351-.204.668-.55.719-.085.02-2.506.627-4.678,7.386-.088.275-.344.451-.619.451Z"/>
  </g>
  <g>
    <circle cx="83.124" cy="52.526" r="30.365"/>
    <g>
      <rect class="cls-1" x="64.964" y="28.859" width="46.005" height="57.368" rx="23.002" ry="23.002" transform="translate(185.529 96.67) rotate(168.662)"/>
      <rect class="cls-1" x="74.12" y="67.526" width="22.424" height="29.01" rx="11.212" ry="11.212" transform="translate(187.742 141.384) rotate(166.225)"/>
      <circle class="cls-1" cx="69.288" cy="62.713" r="8.953"/>
      <path class="cls-2" d="m97.336,63.199c-.25,0-.473-.178-.521-.433l-.713-3.803c-.054-.288.136-.565.424-.619.287-.051.565.137.619.424l.713,3.803c.054.288-.136.565-.424.619-.033.006-.066.009-.098.009Z"/>
      <circle cx="103.264" cy="58.888" r="1.027"/>
      <circle cx="90.45" cy="61.106" r="1.027"/>
    </g>
    <polygon points="64.106 55.411 110.303 45.734 104.829 35.293 92.691 27.705 84.572 27.309 71.628 32.513 63.562 41.227 61.033 51.606 64.106 55.411"/>
    <path d="m62.157,73.337l-20.323,8.851c-.766.334-.939,1.343-.328,1.912l11.806,11.008c.588.548,1.541.347,1.858-.391l8.517-19.859c.275-.64-.073-1.377-.742-1.571h0c-.26-.076-.539-.058-.787.05Z"/>
    <path d="m93.691,85.359c-1.464,0-3.335-.202-5.462-.891-.279-.091-.431-.39-.341-.668.09-.278.39-.432.668-.342,4.688,1.521,8.109.496,8.143.483.277-.083.576.069.664.35.087.279-.068.576-.347.663-.087.027-1.326.404-3.325.404Z"/>
    <path d="m121.348,120.986c-.221,0-.427-.139-.502-.36-2.677-7.896-10.236-12.434-10.312-12.479-.252-.149-.336-.475-.188-.727.149-.253.474-.336.727-.188.324.191,7.972,4.774,10.778,13.053.094.277-.055.578-.332.672-.057.02-.114.028-.17.028Z"/>
  </g>
  <path d="m89.103,57.842c-.244,0-.463-.169-.518-.417-.063-.286.119-.569.405-.632l2.093-.458c.286-.054.569.119.631.405.063.286-.119.569-.405.632l-2.093.458c-.038.008-.076.012-.114.012Z"/>
  <path d="m102.051,55.292c-.244,0-.463-.169-.518-.417-.063-.286.119-.569.405-.632l2.093-.458c.286-.054.569.119.631.405.063.286-.119.569-.405.632l-2.093.458c-.038.008-.076.012-.114.012Z"/>
  <path d="m67.573,73.293c-.217,0-.42-.134-.499-.35-.04-.108-.971-2.697-1.334-5.306-.041-.29.162-.559.452-.599.288-.054.558.162.599.452.348,2.495,1.271,5.065,1.281,5.091.1.275-.042.58-.318.68-.06.021-.121.031-.181.031Z"/>
</svg>