<svg width="98" height="32" viewBox="0 0 99 32" fill="none" xmlns="http://www.w3.org/2000/svg">
<rect x="0.140625" y="0.931641" width="96" height="29" rx="4" fill="#FF9900"/>
<path d="M23.474 9.93164L26.8073 9.93164C27.0434 9.93164 27.2413 10.0115 27.401 10.1712C27.5608 10.3309 27.6406 10.5289 27.6406 10.765C27.6406 11.0011 27.5608 11.199 27.401 11.3587C27.2413 11.5184 27.0434 11.5983 26.8073 11.5983L23.474 11.5983C23.2378 11.5983 23.0399 11.5184 22.8802 11.3587C22.7205 11.199 22.6406 11.0011 22.6406 10.765C22.6406 10.5289 22.7205 10.3309 22.8802 10.1712C23.0399 10.0115 23.2378 9.93164 23.474 9.93164ZM13.474 18.265L26.8073 18.265C27.0434 18.265 27.2413 18.3448 27.401 18.5046C27.5608 18.6643 27.6406 18.8622 27.6406 19.0983C27.6406 19.3344 27.5608 19.5323 27.401 19.6921C27.2413 19.8518 27.0434 19.9316 26.8073 19.9316L13.474 19.9316C13.2378 19.9316 13.0399 19.8518 12.8802 19.6921C12.7205 19.5323 12.6406 19.3344 12.6406 19.0983C12.6406 18.8622 12.7205 18.6643 12.8802 18.5046C13.0399 18.3448 13.2378 18.265 13.474 18.265ZM18.474 14.0983L26.8073 14.0983C27.0434 14.0983 27.2413 14.1782 27.401 14.3379C27.5608 14.4976 27.6406 14.6955 27.6406 14.9316C27.6406 15.1678 27.5608 15.3657 27.401 15.5254C27.2413 15.6851 27.0434 15.765 26.8073 15.765L18.474 15.765C18.2378 15.765 18.0399 15.6851 17.8802 15.5254C17.7205 15.3657 17.6406 15.1678 17.6406 14.9316C17.6406 14.6955 17.7205 14.4976 17.8802 14.3379C18.0399 14.1782 18.2378 14.0983 18.474 14.0983Z" fill="white"/>
<path d="M38.8855 11.4824V11.2773H41.5516V10.2383H38.8992V8.80273H37.6004V10.2383H34.9344V11.2773H37.6004V11.4824C37.6004 13.0684 36.4656 14.5381 34.5926 15.1328L35.2352 16.1719C36.6844 15.6797 37.7371 14.6816 38.2703 13.4102C38.8172 14.5381 39.8563 15.4199 41.2508 15.8438L41.866 14.832C39.993 14.2852 38.8855 12.9111 38.8855 11.4824ZM36.0555 20.0137L36.5203 21.0391C38.4412 20.7246 40.0408 19.7607 40.7859 18.4346C41.5174 19.7744 43.1102 20.7246 45.0242 21.0391L45.5438 20.0137C43.2059 19.6582 41.449 18.3184 41.4559 16.7324V16.4863H40.1297V16.7324C40.1229 18.2705 38.3318 19.6445 36.0555 20.0137ZM41.1824 13.3281H43.5066V17.293H44.8055V8.84375H43.5066V12.248H41.1824V13.3281ZM56.4898 8.84375H55.191V21.0938H56.4898V15.0645H58.3355V13.9707H56.4898V8.84375ZM46.7418 17.7578L46.9469 18.8379C49.0592 18.8447 51.9234 18.8174 54.5758 18.3457L54.4938 17.3887C53.4752 17.5322 52.3814 17.6211 51.2945 17.6758V16.4795C52.6822 16.2812 53.5982 15.4404 53.6051 14.2578C53.5982 12.877 52.3883 11.9678 50.652 11.9609C48.9088 11.9678 47.7125 12.877 47.7262 14.2578C47.7125 15.4404 48.6148 16.2744 49.9957 16.4795V17.7236C48.8268 17.7578 47.7057 17.7578 46.7418 17.7578ZM46.9742 11.332H54.316V10.293H51.2945V8.87109H49.9957V10.293H46.9742V11.332ZM48.943 14.2578C48.943 13.4717 49.6266 12.9727 50.652 12.9727C51.6773 12.9727 52.3541 13.4717 52.3609 14.2578C52.3541 15.0371 51.6773 15.5225 50.652 15.5156C49.6266 15.5225 48.943 15.0371 48.943 14.2578ZM70.3891 16.0488H59.1781V17.0742H64.1137V21.0938H65.3852V17.0742H70.3891V16.0488ZM60.5727 14.6543H68.9809V9.33594H67.682V10.9355H61.8578V9.33594H60.5727V14.6543ZM61.8578 13.6152V11.9746H67.682V13.6152H61.8578ZM81.7043 8.84375H80.4191V13.3691H77.9855V14.4355H80.4191V21.1211H81.7043V8.84375ZM72.052 18.2227H73.009C75.2785 18.2158 76.8166 18.1406 78.6008 17.8535L78.4641 16.8008C76.8371 17.0811 75.4152 17.1426 73.3645 17.1426V14.4082H77.2609V13.3691H73.3645V10.9902H77.7805V9.9375H72.052V18.2227Z" fill="white"/>
</svg>
