<?xml version="1.0" encoding="utf-8"?>
<!-- Generator: Adobe Illustrator 27.4.0, SVG Export Plug-In . SVG Version: 6.00 Build 0)  -->
<svg version="1.1" id="레이어_1" xmlns="http://www.w3.org/2000/svg" xmlns:xlink="http://www.w3.org/1999/xlink" x="0px"
	 y="0px" viewBox="0 0 24 24" style="enable-background:new 0 0 24 24;" xml:space="preserve">
<style type="text/css">
	.st0{fill:#262524;}
</style>
<path class="st0" d="M18.9,20.3l-5.6-5.6c-0.5,0.4-1.1,0.7-1.7,0.9c-0.6,0.2-1.3,0.4-2.1,0.4c-1.8,0-3.4-0.6-4.6-1.9
	C3.6,12.9,3,11.3,3,9.5s0.6-3.4,1.9-4.6C6.1,3.6,7.7,3,9.5,3s3.4,0.6,4.6,1.9C15.4,6.1,16,7.7,16,9.5c0,0.7-0.1,1.4-0.4,2.1
	c-0.2,0.6-0.6,1.2-0.9,1.7l5.6,5.6c0.2,0.2,0.3,0.4,0.3,0.7s-0.1,0.5-0.3,0.7c-0.2,0.2-0.4,0.3-0.7,0.3S19.1,20.5,18.9,20.3z
	 M9.5,14c1.2,0,2.3-0.4,3.2-1.3c0.9-0.9,1.3-1.9,1.3-3.2s-0.4-2.3-1.3-3.2C11.8,5.4,10.8,5,9.5,5S7.2,5.4,6.3,6.3
	C5.4,7.2,5,8.2,5,9.5s0.4,2.3,1.3,3.2C7.2,13.6,8.2,14,9.5,14z"/>
</svg>
