<?xml version="1.0" encoding="utf-8"?>
<!-- Generator: Adobe Illustrator 27.4.0, SVG Export Plug-In . SVG Version: 6.00 Build 0)  -->
<svg version="1.1" id="레이어_1" xmlns="http://www.w3.org/2000/svg" xmlns:xlink="http://www.w3.org/1999/xlink" x="0px"
	 y="0px" viewBox="0 0 24 24" style="enable-background:new 0 0 24 24;" xml:space="preserve">
<style type="text/css">
	.st0{fill:#262524;}
</style>
<path class="st0" d="M13.9,22h-3.8c-0.2,0-0.5-0.1-0.6-0.2s-0.3-0.4-0.3-0.6l-0.3-2.3c-0.2-0.1-0.4-0.2-0.6-0.3
	c-0.2-0.1-0.4-0.2-0.6-0.4L5.5,19c-0.2,0.1-0.5,0.1-0.7,0s-0.4-0.2-0.6-0.4l-1.9-3.2c-0.1-0.2-0.2-0.4-0.1-0.7s0.2-0.4,0.4-0.6
	l1.9-1.4c0-0.1,0-0.2,0-0.3v-0.7c0-0.1,0-0.2,0-0.3L2.7,9.9C2.5,9.7,2.3,9.5,2.3,9.3s0-0.5,0.1-0.7l1.8-3.2C4.4,5.1,4.5,5,4.8,4.9
	c0.2-0.1,0.5,0,0.7,0l2.2,0.9c0.2-0.1,0.4-0.3,0.6-0.4s0.4-0.2,0.6-0.3l0.3-2.3c0-0.2,0.1-0.5,0.3-0.6C9.7,2.1,9.9,2,10.1,2h3.8
	c0.2,0,0.5,0.1,0.6,0.2c0.2,0.2,0.3,0.4,0.3,0.6l0.3,2.3c0.2,0.1,0.4,0.2,0.6,0.3c0.2,0.1,0.4,0.2,0.6,0.4L18.5,5
	c0.2-0.1,0.5-0.1,0.7,0s0.4,0.2,0.5,0.4l1.9,3.2c0.1,0.2,0.2,0.4,0.1,0.7c0,0.2-0.2,0.4-0.4,0.6l-1.9,1.4c0,0.1,0,0.2,0,0.3v0.7
	c0,0.1,0,0.2,0,0.3l1.9,1.4c0.2,0.1,0.3,0.4,0.4,0.6c0,0.2,0,0.5-0.1,0.7l-1.9,3.2c-0.1,0.2-0.3,0.4-0.6,0.4c-0.2,0.1-0.5,0.1-0.7,0
	l-2.1-0.9c-0.2,0.1-0.4,0.3-0.6,0.4c-0.2,0.1-0.4,0.2-0.6,0.3l-0.3,2.3c0,0.2-0.1,0.5-0.3,0.6C14.3,21.9,14.1,22,13.9,22z
	 M12.1,15.5c1,0,1.8-0.3,2.5-1c0.7-0.7,1-1.5,1-2.5s-0.3-1.8-1-2.5c-0.7-0.7-1.5-1-2.5-1c-1,0-1.8,0.3-2.5,1c-0.7,0.7-1,1.5-1,2.5
	s0.3,1.8,1,2.5C10.2,15.2,11.1,15.5,12.1,15.5z"/>
</svg>
