<?xml version="1.0" encoding="utf-8"?>
<!-- Generator: Adobe Illustrator 27.4.0, SVG Export Plug-In . SVG Version: 6.00 Build 0)  -->
<svg version="1.1" id="레이어_1" xmlns="http://www.w3.org/2000/svg" xmlns:xlink="http://www.w3.org/1999/xlink" x="0px"
	 y="0px" viewBox="0 0 24 24" style="enable-background:new 0 0 24 24;" xml:space="preserve">
<style type="text/css">
	.st0{fill:none;stroke:#262524;stroke-width:2;stroke-linecap:round;stroke-linejoin:round;stroke-miterlimit:10;}
	.st1{fill:#262524;}
	.st2{fill:#FFFFFF;}
	.st3{fill:#FF9900;}
</style>
<g>
	<path class="st0" d="M15,4.7c3.1,0.9,5.4,3.9,5.4,7.3"/>
	<path class="st0" d="M15,19.3c3.1-0.9,5.4-3.9,5.4-7.3"/>
	<path class="st0" d="M15,19.3"/>
	<path class="st0" d="M15,9.1c0.9,0.7,1.4,1.7,1.4,2.9c0,1.2-0.6,2.2-1.4,2.9"/>
</g>
<path class="st1" d="M8.9,13.3L4.6,9H4C3.7,9,3.5,9.1,3.3,9.3S3,9.7,3,10v4c0,0.3,0.1,0.5,0.3,0.7S3.7,15,4,15h3l3.3,3.3
	c0.3,0.3,0.7,0.4,1.1,0.2c0.4-0.2,0.6-0.5,0.6-0.9v-1.2L8.9,13.3z M11.4,5.5c-0.4-0.2-0.8-0.1-1.1,0.2L9.4,6.6L12,9.2V6.4
	C12,6,11.8,5.7,11.4,5.5z"/>
<polygon class="st1" points="4.6,9 7.1,9 9.4,6.6 12,9.2 12,16.4 6.7,12.4 "/>
<polygon class="st2" points="12,16.4 12,16.4 8.9,13.3 8.9,13.3 "/>
<polygon class="st1" points="12,15.7 12,17 8.5,13.2 9,12.7 "/>
<g>
	<path class="st0" d="M43.2,4.7c3.1,0.9,5.4,3.9,5.4,7.3"/>
	<path class="st0" d="M43.2,19.3c3.1-0.9,5.4-3.9,5.4-7.3"/>
	<path class="st0" d="M43.2,19.3"/>
	<path class="st0" d="M43.2,9.1c0.9,0.7,1.4,1.7,1.4,2.9c0,1.2-0.6,2.2-1.4,2.9"/>
</g>
<path class="st1" d="M37.1,13.3L32.8,9h-0.6c-0.3,0-0.5,0.1-0.7,0.3c-0.2,0.2-0.3,0.4-0.3,0.7v4c0,0.3,0.1,0.5,0.3,0.7
	c0.2,0.2,0.4,0.3,0.7,0.3h3l3.3,3.3c0.3,0.3,0.7,0.4,1.1,0.2c0.4-0.2,0.6-0.5,0.6-0.9v-1.2L37.1,13.3z M39.6,5.5
	c-0.4-0.2-0.8-0.1-1.1,0.2l-0.9,0.9l2.6,2.6V6.4C40.2,6,40,5.7,39.6,5.5z"/>
<polygon class="st1" points="32.8,9 35.3,9 37.6,6.6 40.2,9.2 40.2,16.4 34.9,12.4 "/>
<path class="st3" d="M49,21.2c0,0.3-0.1,0.5-0.3,0.7c-0.2,0.2-0.4,0.3-0.7,0.3s-0.5-0.1-0.7-0.3L45,19.6l-4.8-4.8l-1.6-1.6L34.4,9
	l-0.9-0.9l-3.2-3.2C30.1,4.7,30,4.5,30,4.2s0.1-0.5,0.3-0.7s0.4-0.3,0.7-0.3c0.3,0,0.5,0.1,0.7,0.3l17,17C48.9,20.7,49,20.9,49,21.2
	z"/>
<polygon class="st2" points="40.2,16.4 40.2,16.4 37.1,13.3 37.1,13.3 "/>
<polygon class="st1" points="40.2,15.7 40.2,17 36.8,13.2 37.2,12.7 "/>
</svg>
