<?xml version="1.0" encoding="UTF-8"?>
<svg id="_레이어_1" data-name="레이어 1" xmlns="http://www.w3.org/2000/svg" viewBox="0 0 24 24">
  <defs>
    <style>
      .cls-1 {
        fill: #fff;
      }

      .cls-2 {
        fill: #262524;
      }

      .cls-3 {
        fill: none;
        stroke: #262524;
        stroke-linecap: round;
        stroke-linejoin: round;
        stroke-width: 2px;
      }
    </style>
  </defs>
  <g>
    <path class="cls-3" d="m15.024,4.68c3.144.948,5.434,3.867,5.434,7.32"/>
    <path class="cls-3" d="m15.024,19.321c3.144-.948,5.434-3.867,5.434-7.32"/>
    <path class="cls-3" d="m15.026,9.11c.868.665,1.427,1.712,1.427,2.89s-.56,2.226-1.428,2.891"/>
  </g>
  <path class="cls-2" d="m8.9,13.3l-4.3-4.3h-.6c-.3,0-.5.1-.7.3s-.3.4-.3.7v4c0,.3.1.5.3.7s.4.3.7.3h3l3.3,3.3c.3.3.7.4,1.1.2.4-.2.6-.5.6-.9v-1.2l-3.1-3.1Zm2.5-7.8c-.4-.2-.8-.1-1.1.2l-.9.9,2.6,2.6v-2.8c0-.4-.2-.7-.6-.9Z"/>
  <polygon class="cls-2" points="4.6 9 7.085 9 9.4 6.6 12 9.2 12 16.4 6.664 12.368 4.6 9"/>
  <polygon class="cls-1" points="12 16.4 12 16.4 8.9 13.3 8.9 13.3 12 16.4"/>
  <polygon class="cls-2" points="12 15.669 12 17.005 8.534 13.161 8.965 12.7 12 15.669"/>
</svg>