<?xml version="1.0" encoding="UTF-8"?>
<svg id="_레이어_1" data-name=" 레이어 1" xmlns="http://www.w3.org/2000/svg" viewBox="0 0 215.367 117.111">
  <defs>
    <style>
      .cls-1 {
        fill: #ffc37c;
      }

      .cls-2 {
        fill: none;
        stroke: #f90;
        stroke-linecap: round;
        stroke-linejoin: round;
        stroke-width: 6.851px;
      }
    </style>
  </defs>
  <path class="cls-1" d="m160.039,56.551v-3.231c0-2.53,1.86-3.503,3.872-3.503,1.974,0,3.872,1.012,3.872,3.503v3.231h13.211c2.316,0,3.189,1.635,3.189,3.191,0,1.596-.91,3.152-3.189,3.152h-29.156c-2.278,0-3.188-1.556-3.188-3.152,0-1.556.873-3.191,3.188-3.191h8.2,0Zm-6.529-9.691c-2.467,0-3.494-1.401-3.494-3.191,0-1.674.987-3.114,3.494-3.114h23.537c3.682,0,5.087,1.595,5.087,4.398v2.14c0,1.737-.13,3.413-.328,4.837-.258,1.854-1.826,3.219-3.653,3.219h0c-2.162,0-3.884-1.895-3.679-4.102.068-.739.106-1.508.106-2.282v-1.051c0-.506-.266-.856-.949-.856h-20.12,0Zm-2.961,24.052v-2.763c0-2.647,1.822-3.775,3.949-3.775s3.834,1.167,3.834,3.775v1.4c0,.537.425.974.949.974h20.538c2.315,0,3.188,1.44,3.188,2.998,0,1.595-.91,3.035-3.188,3.035h-23.841c-4.29,0-5.429-1.44-5.429-5.643h0Z"/>
  <path class="cls-1" d="m123.634,69.472v-7.343c0-2.53,1.861-3.58,3.872-3.58,1.974,0,3.873,1.09,3.873,3.58v7.343h10.705c2.316,0,3.189,1.596,3.189,3.152,0,1.596-.91,3.152-3.189,3.152h-29.156c-2.278,0-3.188-1.556-3.188-3.152,0-1.556.873-3.152,3.188-3.152h10.705Z"/>
  <path class="cls-2" d="m127.506,44.653l.12.17c3.173,4.478,7.549,8.301,12.792,11.176h0"/>
  <path class="cls-2" d="m127.506,44.653l-.127.17c-3.339,4.478-7.943,8.301-13.462,11.177h0"/>
  <path class="cls-1" d="m81.482,56.551v-3.231c0-2.53,1.86-3.503,3.872-3.503,1.974,0,3.872,1.012,3.872,3.503v3.231h13.211c2.316,0,3.189,1.635,3.189,3.191,0,1.596-.91,3.152-3.189,3.152h-29.156c-2.278,0-3.188-1.556-3.188-3.152,0-1.556.873-3.191,3.188-3.191h8.2,0Zm-6.529-9.691c-2.467,0-3.494-1.401-3.494-3.191,0-1.674.987-3.114,3.494-3.114h23.537c3.682,0,5.087,1.595,5.087,4.398v2.14c0,1.737-.13,3.413-.328,4.837-.258,1.854-1.826,3.219-3.653,3.219h0c-2.162,0-3.884-1.895-3.679-4.102.068-.739.106-1.508.106-2.282v-1.051c0-.506-.266-.856-.949-.856h-20.12,0Zm-2.961,24.052v-2.763c0-2.647,1.822-3.775,3.949-3.775s3.834,1.167,3.834,3.775v1.4c0,.537.425.974.949.974h20.538c2.315,0,3.188,1.44,3.188,2.998,0,1.595-.91,3.035-3.188,3.035h-23.841c-4.29,0-5.429-1.44-5.429-5.643h0Z"/>
  <path class="cls-1" d="m45.077,69.472v-7.343c0-2.53,1.861-3.58,3.872-3.58,1.974,0,3.873,1.09,3.873,3.58v7.343h10.705c2.316,0,3.189,1.596,3.189,3.152,0,1.596-.91,3.152-3.189,3.152h-29.156c-2.278,0-3.188-1.556-3.188-3.152,0-1.556.873-3.152,3.188-3.152h10.705,0Z"/>
  <path class="cls-2" d="m48.949,44.653l.12.17c3.173,4.478,7.549,8.301,12.792,11.176h0"/>
  <path class="cls-2" d="m48.949,44.653l-.127.17c-3.339,4.478-7.943,8.301-13.462,11.177h0"/>
</svg>