<?xml version="1.0" encoding="UTF-8"?>
<svg id="_레이어_1" data-name=" 레이어 1" xmlns="http://www.w3.org/2000/svg" xmlns:xlink="http://www.w3.org/1999/xlink" viewBox="0 0 264.152 246.39">
  <defs>
    <style>
      .cls-1 {
        fill: #fff;
      }

      .cls-2, .cls-3 {
        fill: #f90;
      }

      .cls-3 {
        filter: url(#drop-shadow-2);
      }
    </style>
    <filter id="drop-shadow-2">
      <feOffset dx="0" dy="0"/>
      <feGaussianBlur result="blur" stdDeviation="20"/>
      <feFlood flood-color="#8c4a26" flood-opacity=".2"/>
      <feComposite in="blur" operator="in"/>
      <feComposite in="SourceGraphic"/>
    </filter>
  </defs>
  <rect class="cls-3" x="74.145" y="64.64" width="112" height="112" rx="39.387" ry="39.387"/>
  <g>
    <path class="cls-1" d="m163.793,119.64v26.632h-.147c-1.141,0-8.558-.34-12.672-9.11-4.122,8.77-15.008,9.11-16.149,9.11-.092,0,.546,0,.546,0h-12.244c-14.706,0-26.632-11.917-26.632-26.632,0-7.352,2.982-14.006,7.804-18.828,4.813-4.822,11.476-7.804,18.828-7.804h14.034c14.706,0,26.632,11.926,26.632,26.632h0Z"/>
    <g>
      <circle class="cls-2" cx="116.615" cy="117.561" r="2.079"/>
      <circle class="cls-2" cx="126.615" cy="117.561" r="2.079"/>
      <circle class="cls-2" cx="136.614" cy="117.561" r="2.079"/>
    </g>
  </g>
</svg>